<svg xmlns="http://www.w3.org/2000/svg" viewBox="0 0 128 128" id="Instagram--Streamline-Font-Awesome" height="128" width="128"><desc>Instagram Streamline Icon: https://streamlinehq.com</desc><!--! Font Awesome Free 6.5.2 by @fontawesome - https://fontawesome.com License - https://fontawesome.com/license/free (Icons: CC BY 4.0, Fonts: SIL OFL 1.1, Code: MIT License) Copyright 2024 Fonticons, Inc.--><path d="M64.014 31.84594285714286c-17.798085714285715 0 -32.15405714285714 14.356 -32.15405714285714 32.15405714285714s14.355971428571427 32.15405714285714 32.15405714285714 32.15405714285714S96.16805714285712 81.79805714285715 96.16805714285712 64s-14.356 -32.15405714285714 -32.15405714285714 -32.15405714285714Zm0 53.05839999999999c-11.5016 0 -20.904342857142854 -9.374771428571428 -20.904342857142854 -20.904342857142854s9.374771428571428 -20.904342857142854 20.904342857142854 -20.904342857142854S84.91831428571427 52.47042857142857 84.91831428571427 64s-9.402742857142856 20.904342857142854 -20.904314285714282 20.904342857142854Zm40.969114285714284 -54.373657142857134c0 4.169657142857143 -3.358114285714285 7.4998000000000005 -7.4998000000000005 7.4998000000000005 -4.1696857142857136 0 -7.499828571428571 -3.358114285714285 -7.499828571428571 -7.4998000000000005s3.358142857142857 -7.499828571428571 7.499828571428571 -7.499828571428571 7.4998000000000005 3.358142857142857 7.4998000000000005 7.499828571428571Zm21.296142857142858 7.611742857142858c-0.47574285714285713 -10.046399999999998 -2.770457142857143 -18.945428571428568 -10.130371428571427 -26.277342857142855 -7.331885714285714 -7.331914285714285 -16.230942857142857 -9.62662857142857 -26.277314285714287 -10.130342857142857 -10.354228571428571 -0.5876571428571428 -41.388914285714286 -0.5876571428571428 -51.74314285714286 0 -10.0184 0.47574285714285713 -18.91742857142857 2.770457142857143 -26.277342857142855 10.102371428571429S2.2244571428571427 28.068057142857143 1.720742857142857 38.11445714285714c-0.5876571428571428 10.354199999999999 -0.5876571428571428 41.38888571428571 0 51.743114285714285 0.47574285714285713 10.046399999999998 2.770457142857143 18.945428571428568 10.130342857142857 26.277342857142855s16.230942857142857 9.62662857142857 26.277342857142855 10.130342857142857c10.354228571428571 0.5876571428571428 41.388914285714286 0.5876571428571428 51.74314285714286 0 10.046371428571428 -0.47574285714285713 18.945428571428568 -2.770457142857143 26.277314285714287 -10.130342857142857 7.331914285714285 -7.331914285714285 9.62662857142857 -16.230942857142857 10.130371428571427 -26.277342857142855 0.5876571428571428 -10.354228571428571 0.5876571428571428 -41.36091428571429 0 -51.71514285714285Zm-13.376542857142857 62.82494285714286c-2.1828 5.4849428571428565 -6.408428571428571 9.710571428571429 -11.921342857142855 11.921342857142855 -8.2554 3.2741714285714285 -27.84448571428571 2.5185999999999997 -36.967371428571425 2.5185999999999997s-28.739971428571426 0.7276 -36.967371428571425 -2.5185999999999997c-5.4849428571428565 -2.1827714285714284 -9.7106 -6.408428571428571 -11.921371428571428 -11.921342857142855 -3.2741714285714285 -8.2554 -2.5185714285714282 -27.84445714285714 -2.5185714285714282 -36.967371428571425s-0.7276 -28.739971428571426 2.5185714285714282 -36.967371428571425c2.1828 -5.4849428571428565 6.408428571428571 -9.710571428571429 11.921371428571428 -11.921342857142855 8.255371428571427 -3.2741714285714285 27.84445714285714 -2.5185999999999997 36.967371428571425 -2.5185999999999997s28.739942857142854 -0.7276 36.967371428571425 2.5185999999999997c5.4849428571428565 2.1827714285714284 9.710571428571429 6.408428571428571 11.921342857142855 11.921342857142855 3.2741714285714285 8.2554 2.5185999999999997 27.84445714285714 2.5185999999999997 36.967371428571425s0.7555714285714284 28.739971428571426 -2.5185999999999997 36.967371428571425Z" fill="#000000" stroke-width="0.2857"></path></svg>