<svg xmlns="http://www.w3.org/2000/svg" viewBox="0 0 128 128" id="Linkedin-In--Streamline-Font-Awesome" height="128" width="128"><desc>Linkedin In Streamline Icon: https://streamlinehq.com</desc><!--! Font Awesome Free 6.5.2 by @fontawesome - https://fontawesome.com License - https://fontawesome.com/license/free (Icons: CC BY 4.0, Fonts: SIL OFL 1.1, Code: MIT License) Copyright 2024 Fonticons, Inc.--><path d="M29.3584 126.7186H3.3519999999999994v-83.74799999999999h26.0064Zm-13.017199999999999 -95.17199999999998c-8.316 0 -15.0612 -6.888 -15.0612 -15.203999999999999 0 -11.594114285714285 12.550999999999998 -18.84042857142857 22.591799999999996 -13.043371428571428 4.659942857142856 2.6904 7.5306 7.662514285714285 7.5306 13.043371428571428 0 8.316 -6.747999999999999 15.203999999999999 -15.0612 15.203999999999999Zm110.35079999999999 95.17199999999998h-25.950400000000002v-40.767999999999994c0 -9.716 -0.196 -22.176 -13.521199999999999 -22.176 -13.521199999999999 0 -15.5932 10.556 -15.5932 21.476v41.467999999999996h-25.9784v-83.74799999999999h24.9424v11.424h0.364c3.4719999999999995 -6.58 11.953199999999999 -13.524000000000001 24.606399999999997 -13.524000000000001 26.32 0 31.1584 17.331999999999997 31.1584 39.844v46.004Z" fill="#000000" stroke-width="0.2857"></path></svg>