<svg xmlns="http://www.w3.org/2000/svg" viewBox="0 0 128 128" id="Youtube--Streamline-Font-Awesome" height="128" width="128"><desc>Youtube Streamline Icon: https://streamlinehq.com</desc><!--! Font Awesome Free 6.5.2 by @fontawesome - https://fontawesome.com License - https://fontawesome.com/license/free (Icons: CC BY 4.0, Fonts: SIL OFL 1.1, Code: MIT License) Copyright 2024 Fonticons, Inc.--><path d="M124.0988 33.700355555555554c-1.4426444444444444 -5.432111111111111 -5.693244444444444 -9.710266666666666 -11.0902 -11.16211111111111C103.2262222222222 19.900044444444443 64 19.900044444444443 64 19.900044444444443s-39.22597777777777 0 -49.0086 2.6382c-5.3969555555555555 1.4520888888888888 -9.647555555555556 5.7299999999999995 -11.0902 11.16211111111111C1.2799999999999998 43.54635555555555 1.2799999999999998 64.08911111111111 1.2799999999999998 64.08911111111111s0 20.542777777777776 2.6212 30.38877777777778c1.4426444444444444 5.432088888888889 5.693244444444444 9.532022222222222 11.0902 10.983866666666666C24.774022222222218 108.09995555555554 64 108.09995555555554 64 108.09995555555554s39.22597777777777 0 49.0086 -2.6382c5.3969555555555555 -1.4518444444444443 9.647555555555556 -5.551755555555555 11.0902 -10.983866666666666C126.72 84.63188888888888 126.72 64.08911111111111 126.72 64.08911111111111s0 -20.542755555555555 -2.6212 -30.388755555555555ZM51.17082222222222 82.7404V45.43782222222222l32.78533333333333 18.651755555555557 -32.78533333333333 18.65082222222222Z" fill="#000000" stroke-width="0.2222"></path></svg>