<?xml version="1.0" encoding="UTF-8" standalone="no"?>
<!DOCTYPE svg PUBLIC "-//W3C//DTD SVG 1.1//EN" "http://www.w3.org/Graphics/SVG/1.1/DTD/svg11.dtd">
<svg width="100%" height="100%" viewBox="0 0 648 171" version="1.1" xmlns="http://www.w3.org/2000/svg" xmlns:xlink="http://www.w3.org/1999/xlink" xml:space="preserve" xmlns:serif="http://www.serif.com/" style="fill-rule:evenodd;clip-rule:evenodd;stroke-linejoin:round;stroke-miterlimit:2;">
    <g transform="matrix(1,0,0,1,-579.511,0.001)">
        <g transform="matrix(1,0,0,1,0.00134127,-41.661)">
            <g transform="matrix(1,0,0,1,886.935,-289.72)">
                <g>
                    <g>
                        <path d="M-298.85,349.71C-293.17,364.1 -282.2,371.82 -268.96,377.57C-244.07,388.37 -219.43,399.73 -194.7,410.88C-186.94,414.38 -179.68,418.69 -173.22,424.22C-156.62,438.42 -152.3,456.61 -160.68,477.52C-161.91,480.59 -163.44,483.54 -165.06,487.04C-170.71,472.76 -181.56,465.01 -194.69,459.3C-219.92,448.32 -245.03,437.06 -269.94,425.42C-277.29,421.99 -284.32,417.51 -290.59,412.4C-307.49,398.62 -311.6,380.18 -303.22,359.23C-301.99,356.16 -300.46,353.2 -298.85,349.71Z" style="fill:white;"/>
                    </g>
                </g>
            </g>
        </g>
        <g transform="matrix(1,0,0,1,0.00134127,-41.661)">
            <g transform="matrix(1,0,0,1,886.935,-289.72)">
                <g>
                    <g>
                        <path d="M-270.08,360.61C-270.61,353.12 -277.17,346.99 -284.66,346.99C-277.17,346.99 -271.48,340.87 -272.01,333.37C-271.48,340.86 -264.92,346.99 -257.43,346.99C-264.92,346.99 -270.61,353.11 -270.08,360.61Z"/>
                    </g>
                </g>
            </g>
        </g>
        <g transform="matrix(1,0,0,1,0.00134127,-41.661)">
            <g transform="matrix(1,0,0,1,886.935,-289.72)">
                <g>
                    <g>
                        <path d="M-185.83,499.04C-185.52,491.55 -191.38,485.42 -198.87,485.42C-191.38,485.42 -185,479.3 -184.68,471.8C-184.99,479.29 -179.13,485.42 -171.63,485.42C-179.13,485.42 -185.52,491.55 -185.83,499.04Z"/>
                    </g>
                </g>
            </g>
        </g>
        <g transform="matrix(1,0,0,1,0.00134127,-41.661)">
            <g transform="matrix(1,0,0,1,886.935,-289.72)">
                <g>
                    <g>
                        <path d="M-297.82,347.25C-291.6,361.64 -280.33,369.36 -266.88,375.1C-241.58,385.9 -216.52,397.25 -191.37,408.41C-183.48,411.91 -176.06,416.22 -169.38,421.75C-152.24,435.95 -147.24,454.14 -154.83,475.05C-155.94,478.12 -157.36,481.07 -158.85,484.57C-165.04,470.29 -176.18,462.54 -189.53,456.83C-215.18,445.85 -240.71,434.59 -266.06,422.95C-273.54,419.52 -280.74,415.04 -287.2,409.93C-304.62,396.16 -309.42,377.71 -301.84,356.76C-300.71,353.69 -299.3,350.73 -297.82,347.25Z"/>
                    </g>
                </g>
            </g>
        </g>
        <g transform="matrix(1,0,0,1,0.00134127,-41.661)">
            <g transform="matrix(1,0,0,1,886.935,-289.72)">
                <g>
                    <g>
                        <path d="M-272.01,360.45C-272.01,352.96 -278.13,346.83 -285.63,346.83C-278.14,346.83 -272.01,340.71 -272.01,333.21C-272.01,340.7 -265.89,346.83 -258.39,346.83C-265.89,346.84 -272.01,352.96 -272.01,360.45Z"/>
                    </g>
                </g>
            </g>
        </g>
        <g transform="matrix(1,0,0,1,0.00134127,-41.661)">
            <g transform="matrix(1,0,0,1,886.935,-289.72)">
                <g>
                    <g>
                        <path d="M-184.68,498.57C-184.68,491.08 -190.8,484.95 -198.3,484.95C-190.81,484.95 -184.68,478.83 -184.68,471.33C-184.68,478.82 -178.56,484.95 -171.06,484.95C-178.56,484.96 -184.68,491.08 -184.68,498.57Z"/>
                    </g>
                </g>
            </g>
        </g>
        <g transform="matrix(1,0,0,1,0.00134127,-41.661)">
            <g transform="matrix(1,0,0,1,886.935,-289.72)">
                <g>
                    <g>
                        <path d="M-155.73,392.56C-172.56,382.78 -188.99,373.24 -205.97,363.37C-188.68,353.56 -171.76,343.96 -154.5,334.16C-154.91,353.76 -155.31,372.85 -155.73,392.56Z" style="fill:white;"/>
                    </g>
                </g>
            </g>
        </g>
        <g transform="matrix(1,0,0,1,0.00134127,-41.661)">
            <g transform="matrix(1,0,0,1,886.935,-289.72)">
                <g>
                    <g>
                        <path d="M-251.63,472.64C-268.2,482.46 -284.36,492.04 -300.86,501.83C-301.93,482.23 -302.98,463.09 -304.05,443.47C-286.51,453.23 -269.32,462.8 -251.63,472.64Z" style="fill:white;"/>
                    </g>
                </g>
            </g>
        </g>
        <g transform="matrix(1,0,0,1,0.00134127,-41.661)">
            <g transform="matrix(1,0,0,1,307.426,-289.72)">
                <g>
                    <g>
                        <path d="M812.01,342.5C812.01,343.64 811.68,344.56 811,345.21C810.35,345.9 809.44,346.22 808.29,346.22C807.14,346.22 806.23,345.89 805.61,345.27C804.96,344.62 804.63,343.73 804.63,342.59C804.63,341.45 804.99,340.53 805.64,339.85C806.33,339.2 807.17,338.87 808.29,338.87C809.5,338.87 810.42,339.16 811.07,339.82C811.68,340.44 812.01,341.36 812.01,342.5ZM841.21,342.5C841.21,341.42 841.54,340.54 842.19,339.92C842.87,339.27 843.79,338.94 844.93,338.94C846.07,338.94 846.99,339.3 847.64,339.95C848.32,340.64 848.65,341.55 848.65,342.69C848.65,343.77 848.32,344.62 847.64,345.27C846.99,345.89 846.08,346.22 844.93,346.22C843.78,346.22 842.87,345.89 842.19,345.21C841.54,344.56 841.21,343.64 841.21,342.5ZM830.36,342.5C830.36,343.64 830.03,344.56 829.39,345.21C828.71,345.9 827.78,346.22 826.64,346.22C825.49,346.22 824.58,345.89 823.93,345.21C823.25,344.56 822.92,343.67 822.92,342.6C822.92,341.46 823.25,340.54 823.93,339.86C824.58,339.21 825.49,338.88 826.64,338.88C827.79,338.88 828.71,339.17 829.39,339.83C830.03,340.44 830.36,341.36 830.36,342.5Z"/>
                    </g>
                </g>
            </g>
        </g>
        <g transform="matrix(1,0,0,1,0.00134127,-41.661)">
            <g transform="matrix(1,0,0,1,307.426,-289.72)">
                <g>
                    <g>
                        <path d="M904.81,372.24L904.81,423.39C904.81,430.02 903.73,435.74 901.64,440.54C899.45,445.31 896.67,449.36 893.21,452.69C889.71,455.86 885.66,458.24 881.06,459.75C876.45,461.42 871.68,462.26 866.71,462.26C861.72,462.26 856.91,461.41 852.24,459.75C847.7,458.25 843.68,455.86 840.2,452.69C837.91,450.57 835.26,447.04 832.25,442.04C829.18,447.04 826.53,450.56 824.32,452.69C820.79,455.86 816.77,458.24 812.26,459.75C807.6,461.42 802.76,462.26 797.79,462.26C792.83,462.26 787.99,461.41 783.36,459.75C778.82,458.25 774.8,455.86 771.3,452.69C769.04,450.57 766.4,447.04 763.32,442.04C760.28,447.04 757.64,450.56 755.39,452.69C751.89,455.86 747.88,458.24 743.35,459.75C738.71,461.42 734.69,462.26 731.29,462.26C726.29,462.26 721.49,461.41 716.82,459.75C712.28,458.25 708.26,455.83 704.76,452.6C704.63,452.47 703.2,451.13 700.46,448.58L700.46,456.12C700.39,463.76 698.79,470.49 695.62,476.27C692.48,482.05 688.04,486.59 682.33,489.96C676.61,493.29 670.7,494.99 664.59,494.99L664.59,488.2C672.43,488.2 679.13,485.16 684.68,479.09C690.23,473.05 693,465.37 693,456.13L693,394.89L692.96,393.86C692.71,393.35 692.45,392.87 692.17,392.43C689.53,388.2 685.03,385.26 678.65,383.6L714.83,383.6C708.45,385.4 703.88,388.38 701.11,392.54C700.88,392.88 700.66,393.25 700.46,393.63L700.46,423.31C700.46,428.54 701.34,433.21 703.04,437.29C704.71,441.24 706.93,444.57 709.74,447.25C712.54,449.99 715.81,452.02 719.5,453.36C723.25,454.76 727.21,455.48 731.29,455.48C731.54,455.48 731.78,455.51 732.02,455.56C734.37,455.44 737.27,454.73 740.67,453.46C744.36,452.12 747.62,450.1 750.43,447.35C753.23,444.61 755.46,441.24 757.13,437.29C758.86,433.27 759.71,428.6 759.71,423.31L759.71,372.66C759.41,372.04 759.11,371.47 758.78,370.94C756.14,366.71 751.64,363.77 745.26,362.11L781.44,362.11C775.06,363.91 770.49,366.89 767.72,371.05C767.46,371.43 767.23,371.83 766.99,372.26L766.99,423.31C766.99,428.6 767.81,433.27 769.47,437.29C771.2,441.24 773.46,444.61 776.26,447.35C779.01,450.09 782.27,452.12 786.02,453.46C789.78,454.86 793.7,455.58 797.78,455.58C801.87,455.58 805.79,454.86 809.58,453.46C813.26,452.12 816.5,450.1 819.3,447.35C822.11,444.61 824.37,441.24 826,437.29C827.74,433.27 828.59,428.6 828.59,423.31L828.59,372.34C828.33,371.84 828.08,371.38 827.81,370.94C825.17,366.71 820.67,363.77 814.29,362.11L850.47,362.11C844.09,363.91 839.52,366.89 836.75,371.05C836.44,371.51 836.15,372.02 835.87,372.56L835.87,423.32C835.87,428.61 836.72,433.28 838.35,437.3C840.02,441.25 842.27,444.62 845.14,447.36C847.88,450.1 851.15,452.13 854.9,453.47C858.65,454.87 862.61,455.59 866.69,455.59C870.78,455.59 874.7,454.87 878.45,453.47C882.14,452.13 885.41,450.11 888.21,447.36C891.02,444.62 893.24,441.25 894.91,437.3C896.64,433.28 897.49,428.61 897.49,423.32L897.49,372.67C897.2,372.05 896.89,371.48 896.56,370.95C893.93,366.72 889.42,363.78 883.05,362.12L919.22,362.12C912.85,363.92 908.28,366.9 905.51,371.06C905.28,371.4 905.03,371.81 904.81,372.24Z"/>
                    </g>
                </g>
            </g>
        </g>
        <g transform="matrix(1,0,0,1,0.00134127,-41.661)">
            <g transform="matrix(1,0,0,1,307.426,-289.72)">
                <g>
                    <g>
                        <path d="M641.04,454.33L641.04,440.19L636.58,445.34C632.72,449.9 627.76,453.57 621.68,456.28C615.66,459.12 608.62,460.54 600.46,460.54C592.27,460.54 585.16,459.15 579.09,456.38C573.07,453.67 568.12,450 564.19,445.44C560.19,440.78 557.22,435.56 555.27,429.75C553.29,423.8 552.3,417.72 552.3,411.45C552.3,404.48 553.39,398 555.57,391.99C557.82,386.01 561.02,380.82 565.15,376.43C569.41,372.04 574.5,368.53 580.45,365.96C586.4,363.38 593.11,362.1 600.57,362.1C608.66,362.1 615.66,363.52 621.68,366.36C627.75,369.07 632.71,372.7 636.58,377.3C640.58,381.96 643.55,387.21 645.5,393.09C647.56,399.07 648.61,405.18 648.61,411.36L648.61,454.34C648.61,462.04 646.99,468.81 643.75,474.66C640.51,480.54 636.02,485.17 630.23,488.57C624.48,491.94 618.47,493.66 612.3,493.66L612.3,486.89C620.22,486.86 627,483.78 632.62,477.64C638.22,471.44 641.04,463.68 641.04,454.33ZM641.04,411.45C641.04,406.16 640.24,401.01 638.63,395.96C637.01,390.81 634.53,386.25 631.17,382.25C627.9,378.22 623.71,375.01 618.58,372.57C613.56,370.03 607.55,368.71 600.57,368.57C593.92,368.57 588.08,369.76 582.96,372.07C577.87,374.45 573.57,377.62 570.1,381.55C566.66,385.48 564.09,390.04 562.34,395.19C560.65,400.34 559.83,405.76 559.83,411.44C559.83,416.73 560.62,421.91 562.24,426.94C563.92,431.96 566.44,436.45 569.81,440.39C573.08,444.39 577.31,447.63 582.49,450.07C587.64,452.45 593.67,453.67 600.57,453.67C607.54,453.67 613.59,452.41 618.67,449.87C623.79,447.43 628,444.19 631.27,440.19C634.57,436.19 637.02,431.73 638.63,426.74C640.24,421.72 641.04,416.6 641.04,411.45Z"/>
                    </g>
                </g>
            </g>
        </g>
        <g transform="matrix(1,0,0,1,0.00134127,-41.661)">
            <g transform="matrix(1,0,0,1,307.426,-289.72)">
                <g>
                    <g>
                        <path d="M496.51,398.29C498.49,398.93 500.38,399.75 502.21,400.77L515.06,408.16L515.06,431.06L524.28,431.06L524.28,402.84L506.83,392.81C504.02,391.21 501.09,390 498.04,389.16C497.53,389.02 497.02,388.9 496.51,388.78L496.51,398.29Z"/>
                    </g>
                </g>
            </g>
        </g>
        <g transform="matrix(1,0,0,1,0.00134127,-41.661)">
            <g transform="matrix(1,0,0,1,307.426,-289.72)">
                <g>
                    <g>
                        <path d="M477.75,451.31C474.01,451.31 470.49,450.6 467.22,449.2C463.93,447.78 461.04,445.84 458.56,443.33C456.1,440.89 454.16,438.03 452.76,434.74C451.34,431.45 450.63,427.95 450.63,424.21C450.63,420.47 451.34,416.95 452.76,413.66C454.16,410.4 456.1,407.53 458.56,405.07C461.04,402.59 463.93,400.62 467.22,399.23C470.48,397.81 474.01,397.1 477.75,397.1C479.74,397.1 481.69,397.32 483.64,397.74L483.64,388.44C481.67,388.11 479.69,387.94 477.68,387.94C472.69,387.94 468,388.91 463.6,390.8C459.22,392.69 455.39,395.27 452.1,398.56C448.76,401.87 446.18,405.75 444.29,410.13C442.42,414.53 441.5,419.22 441.5,424.21C441.5,429.2 442.42,433.89 444.29,438.27C446.18,442.67 448.76,446.53 452.1,449.86C454.13,451.89 456.38,453.65 458.82,455.11C453.64,458.64 450.3,463.32 448.76,469.19C447.15,475.39 447.93,481.45 451.13,487.36L451.34,487.62L455.15,485.06L459.1,482.76L458.89,482.5C457.04,478.93 456.62,475.26 457.64,471.47C458.61,467.59 460.88,464.56 464.45,462.38L464.57,462.31C465.64,461.72 466.77,461.25 467.98,460.94C469.19,460.61 470.42,460.44 471.72,460.44L513.17,460.44L513.17,451.28L477.75,451.28L477.75,451.31Z"/>
                    </g>
                </g>
            </g>
        </g>
        <g transform="matrix(1,0,0,1,0.00134127,-41.661)">
            <g transform="matrix(1,0,0,1,307.426,-289.72)">
                <g>
                    <g>
                        <path d="M600.67,427.15C600.67,417.43 592.72,409.48 583,409.48C592.71,409.48 600.67,401.53 600.67,391.81C600.67,401.53 608.61,409.48 618.34,409.48C608.61,409.48 600.67,417.43 600.67,427.15Z" style="fill:rgb(77,77,77);"/>
                    </g>
                </g>
            </g>
        </g>
        <g transform="matrix(1,0,0,1,0.00134127,-41.661)">
            <g transform="matrix(1,0,0,1,886.935,-289.72)">
                <g>
                    <g>
                        <path d="M-151.36,389.78C-168.39,380 -185.02,370.46 -202.22,360.59C-185.14,350.78 -168.42,341.18 -151.36,331.38L-151.36,389.78Z" style="fill:rgb(77,77,77);"/>
                    </g>
                </g>
            </g>
        </g>
        <g transform="matrix(1,0,0,1,0.00134127,-41.661)">
            <g transform="matrix(1,0,0,1,886.935,-289.72)">
                <g>
                    <g>
                        <path d="M-254.45,471.25C-271.56,481.07 -288.24,490.65 -305.28,500.43L-305.28,442.07C-288.28,451.84 -271.6,461.41 -254.45,471.25Z" style="fill:rgb(77,77,77);"/>
                    </g>
                </g>
            </g>
        </g>
    </g>
</svg>
