<?xml version="1.0" encoding="UTF-8" standalone="no"?>
<!DOCTYPE svg PUBLIC "-//W3C//DTD SVG 1.1//EN" "http://www.w3.org/Graphics/SVG/1.1/DTD/svg11.dtd">
<svg width="100%" height="100%" viewBox="0 0 1227 213" version="1.1" xmlns="http://www.w3.org/2000/svg" xmlns:xlink="http://www.w3.org/1999/xlink" xml:space="preserve" xmlns:serif="http://www.serif.com/" style="fill-rule:evenodd;clip-rule:evenodd;stroke-linejoin:round;stroke-miterlimit:2;">
    <g transform="matrix(1,0,0,1,-136.574,-248.72)">
        <g transform="matrix(0.967918,0,0,0.883309,480.515,41.1518)">
            <g transform="matrix(1.03315,0,0,1.13211,-37.7257,-93.0046)">
                <path d="M-298.85,349.71C-293.17,364.1 -282.2,371.82 -268.96,377.57C-244.07,388.37 -219.43,399.73 -194.7,410.88C-186.94,414.38 -179.68,418.69 -173.22,424.22C-156.62,438.42 -152.3,456.61 -160.68,477.52C-161.91,480.59 -163.44,483.54 -165.06,487.04C-170.71,472.76 -181.56,465.01 -194.69,459.3C-219.92,448.32 -245.03,437.06 -269.94,425.42C-277.29,421.99 -284.32,417.51 -290.59,412.4C-307.49,398.62 -311.6,380.18 -303.22,359.23C-301.99,356.16 -300.46,353.2 -298.85,349.71Z"/>
            </g>
        </g>
        <g transform="matrix(0.967918,0,0,0.883309,480.515,41.1518)">
            <g transform="matrix(1.03315,0,0,1.13211,-37.7257,-93.0046)">
                <path d="M-270.08,360.61C-270.61,353.12 -277.17,346.99 -284.66,346.99C-277.17,346.99 -271.48,340.87 -272.01,333.37C-271.48,340.86 -264.92,346.99 -257.43,346.99C-264.92,346.99 -270.61,353.11 -270.08,360.61Z"/>
            </g>
        </g>
        <g transform="matrix(0.967918,0,0,0.883309,480.515,41.1518)">
            <g transform="matrix(1.03315,0,0,1.13211,-37.7257,-93.0046)">
                <path d="M-185.83,499.04C-185.52,491.55 -191.38,485.42 -198.87,485.42C-191.38,485.42 -185,479.3 -184.68,471.8C-184.99,479.29 -179.13,485.42 -171.63,485.42C-179.13,485.42 -185.52,491.55 -185.83,499.04Z"/>
            </g>
        </g>
        <g transform="matrix(0.967918,0,0,0.883309,480.515,41.1518)">
            <g transform="matrix(1.03315,0,0,1.13211,-37.7257,-93.0046)">
                <path d="M-297.82,347.25C-291.6,361.64 -280.33,369.36 -266.88,375.1C-241.58,385.9 -216.52,397.25 -191.37,408.41C-183.48,411.91 -176.06,416.22 -169.38,421.75C-152.24,435.95 -147.24,454.14 -154.83,475.05C-155.94,478.12 -157.36,481.07 -158.85,484.57C-165.04,470.29 -176.18,462.54 -189.53,456.83C-215.18,445.85 -240.71,434.59 -266.06,422.95C-273.54,419.52 -280.74,415.04 -287.2,409.93C-304.62,396.16 -309.42,377.71 -301.84,356.76C-300.71,353.69 -299.3,350.73 -297.82,347.25Z" style="fill:white;"/>
            </g>
        </g>
        <g transform="matrix(0.967918,0,0,0.883309,480.515,41.1518)">
            <g transform="matrix(1.03315,0,0,1.13211,-37.7257,-93.0046)">
                <path d="M-272.01,360.45C-272.01,352.96 -278.13,346.83 -285.63,346.83C-278.14,346.83 -272.01,340.71 -272.01,333.21C-272.01,340.7 -265.89,346.83 -258.39,346.83C-265.89,346.84 -272.01,352.96 -272.01,360.45Z" style="fill:white;"/>
            </g>
        </g>
        <g transform="matrix(0.967918,0,0,0.883309,480.515,41.1518)">
            <g transform="matrix(1.03315,0,0,1.13211,-37.7257,-93.0046)">
                <path d="M-184.68,498.57C-184.68,491.08 -190.8,484.95 -198.3,484.95C-190.81,484.95 -184.68,478.83 -184.68,471.33C-184.68,478.82 -178.56,484.95 -171.06,484.95C-178.56,484.96 -184.68,491.08 -184.68,498.57Z" style="fill:white;"/>
            </g>
        </g>
        <g transform="matrix(0.967918,0,0,0.883309,480.515,41.1518)">
            <g transform="matrix(1.03315,0,0,1.13211,-37.7257,-93.0046)">
                <path d="M-155.73,392.56C-172.56,382.78 -188.99,373.24 -205.97,363.37C-188.68,353.56 -171.76,343.96 -154.5,334.16C-154.91,353.76 -155.31,372.85 -155.73,392.56Z"/>
            </g>
        </g>
        <g transform="matrix(0.967918,0,0,0.883309,480.515,41.1518)">
            <g transform="matrix(1.03315,0,0,1.13211,-37.7257,-93.0046)">
                <path d="M-251.63,472.64C-268.2,482.46 -284.36,492.04 -300.86,501.83C-301.93,482.23 -302.98,463.09 -304.05,443.47C-286.51,453.23 -269.32,462.8 -251.63,472.64Z"/>
            </g>
        </g>
        <g transform="matrix(0.967918,0,0,0.883309,480.515,41.1518)">
            <g transform="matrix(1.03315,0,0,1.13211,-37.7257,-93.0046)">
                <path d="M256.76,486.8L210.13,486.8C214.9,485.76 218.01,483.69 219.25,480.38C220.29,477.27 220.91,470.43 220.91,459.86L220.91,358.5C220.91,352.9 220.08,348.76 218.42,346.48C216.76,344.2 214.07,342.54 210.13,341.71L245.78,341.71L245.78,470C245.78,475.8 246.61,479.95 248.47,482.23C250.12,484.52 252.82,486.18 256.76,486.8ZM322.04,488.04C313.54,488.04 307.53,484.93 304.01,478.51C300.28,472.09 297.79,462.55 296.76,449.7C296.55,448.66 296.35,446.38 295.72,443.07C295.1,439.75 294.68,437.47 294.48,436.23C294.27,434.99 293.65,433.12 293.03,430.43C292.2,427.74 291.37,425.87 290.54,424.63C289.71,423.39 288.67,421.94 287.22,420.28C285.77,418.83 284.11,417.59 282.25,416.55C288.67,417.17 294.27,418.62 299.04,420.9C303.81,423.18 307.33,425.46 310.02,428.15C312.51,430.84 314.58,434.16 316.45,438.1C318.32,442.04 319.56,445.35 320.18,448.05C320.8,450.74 321.22,453.85 321.84,457.58C322.88,465.25 324.12,470.64 325.57,473.95C326.81,477.27 329.09,478.92 332.2,478.92C334.48,478.92 336.76,477.88 338.63,476.02C340.5,474.15 341.32,471.05 341.53,467.11C342.15,473.74 340.49,478.92 336.97,482.45C333.44,486.18 328.47,488.04 322.04,488.04ZM300.49,382.96L300.49,371.15C300.49,368.04 300.28,365.14 299.87,362.65C299.46,360.37 298.63,357.47 297.38,354.15C295.93,351.04 293.65,348.35 290.33,346.27C286.81,344.2 282.66,342.75 277.48,342.12C285.77,342.74 293.02,343.99 299.24,345.85C305.46,347.72 310.22,350 313.54,352.27C316.65,354.76 319.34,357.66 321.21,360.77C323.08,364.09 324.32,366.99 324.94,369.27C325.35,371.55 325.56,374.04 325.56,376.52C325.56,379.63 325.15,382.53 324.11,385.64C323.07,388.75 321.21,392.27 318.51,396C315.82,399.73 311.67,402.84 305.87,405.53C299.86,408.22 292.81,410.09 284.32,410.92C295.1,406.79 300.49,397.47 300.49,382.96Z" style="fill:white;"/>
            </g>
        </g>
        <g transform="matrix(0.967918,0,0,0.883309,480.515,41.1518)">
            <g transform="matrix(1.03315,0,0,1.13211,-37.7257,-93.0046)">
                <path d="M-76.9,487.63L-122.55,487.63C-118.52,486.94 -115.67,485.34 -114,482.84C-112.33,480.34 -111.5,476.1 -111.5,470.12L-111.5,358.81C-111.5,352.83 -112.3,348.7 -113.9,346.41C-115.5,344.12 -118.38,342.55 -122.55,341.72L-76.9,341.72C-80.37,342.55 -82.84,344.15 -84.3,346.51C-85.76,348.87 -86.49,352.97 -86.49,358.81L-86.49,414.68L-17.07,414.68L-17.07,358.6C-17.07,352.76 -17.8,348.7 -19.26,346.41C-20.72,344.12 -23.19,342.55 -26.66,341.72L19,341.72C14.83,342.55 11.95,344.12 10.35,346.41C8.75,348.7 7.95,352.84 7.95,358.81L7.95,469.92C7.95,476.17 8.78,480.52 10.45,482.95C12.12,485.38 14.97,486.95 19,487.64L-26.65,487.64C-23.04,486.81 -20.54,485.21 -19.15,482.85C-17.76,480.49 -17.07,476.25 -17.07,470.13L-17.07,415.72L-86.49,415.72L-86.49,470.13C-86.49,476.11 -85.76,480.34 -84.3,482.85C-82.84,485.34 -80.37,486.94 -76.9,487.63Z" style="fill:white;"/>
            </g>
        </g>
        <g transform="matrix(0.967918,0,0,0.883309,480.515,41.1518)">
            <g transform="matrix(1.03315,0,0,1.13211,-37.7257,-93.0046)">
                <path d="M56.92,425.07L56.92,359.18C56.92,353.22 56.09,349.03 54.43,346.6C52.77,344.18 49.93,342.55 45.91,341.72L92.68,341.72C88.66,342.55 85.82,344.18 84.16,346.6C82.5,349.03 81.67,353.22 81.67,359.18L81.67,442.74C81.67,469.21 90.33,484.17 107.65,487.64C91.71,486.67 79.28,480.4 70.34,468.83C61.39,457.25 56.92,442.67 56.92,425.07ZM148.5,341.71L184.67,341.71C178.3,343.51 173.72,346.49 170.95,350.65C169.25,353.21 168.04,356.91 167.33,361.77C167.41,361.21 167.5,360.66 167.6,360.12C167.55,360.97 167.52,361.86 167.52,362.78L167.52,423.35L165.64,423.35L165.64,362.78C165.64,362.49 165.64,362.21 165.63,361.93L165.65,362.07C164.87,357.04 163.65,353.19 162,350.54C159.38,346.32 154.87,343.38 148.5,341.71ZM167.26,362.28C167.23,362.51 167.2,362.74 167.17,362.98C167.2,362.75 167.23,362.51 167.26,362.28ZM166.09,365.35C166.03,364.83 165.97,364.32 165.91,363.82C165.97,364.33 166.03,364.83 166.09,365.35ZM165.83,363.23C165.8,363.03 165.78,362.84 165.75,362.65C165.77,362.84 165.8,363.04 165.83,363.23Z" style="fill:white;"/>
            </g>
        </g>
        <g transform="matrix(0.967918,0,0,0.883309,480.515,41.1518)">
            <g transform="matrix(1.03315,0,0,1.13211,-37.7257,-93.0046)">
                <path d="M491.3,360.13C491.25,360.98 491.22,361.87 491.22,362.79L491.22,423.36L489.34,423.36L489.34,362.79C489.34,362.5 489.34,362.22 489.33,361.94C488.55,356.98 487.34,353.18 485.7,350.55C483.07,346.32 478.56,343.38 472.19,341.72L508.36,341.72C501.99,343.52 497.41,346.5 494.64,350.66C492.94,353.22 491.73,356.92 491.02,361.78C491.12,361.21 491.21,360.66 491.3,360.13ZM380.62,425.07L380.62,359.18C380.62,353.22 379.79,349.03 378.13,346.6C376.47,344.18 373.63,342.55 369.61,341.72L416.38,341.72C412.36,342.55 409.52,344.18 407.86,346.6C406.2,349.03 405.36,353.22 405.36,359.18L405.36,442.74C405.36,469.21 414.02,484.17 431.34,487.64C415.4,486.67 402.97,480.4 394.03,468.83C385.09,457.25 380.62,442.67 380.62,425.07ZM490,367.6C490.03,367.98 490.06,368.37 490.09,368.77C490.07,368.37 490.04,367.98 490,367.6Z" style="fill:white;"/>
            </g>
        </g>
        <g transform="matrix(0.967918,0,0,0.883309,480.515,41.1518)">
            <g transform="matrix(1.03315,0,0,1.13211,-37.7257,-93.0046)">
                <path d="M812.01,342.5C812.01,343.64 811.68,344.56 811,345.21C810.35,345.9 809.44,346.22 808.29,346.22C807.14,346.22 806.23,345.89 805.61,345.27C804.96,344.62 804.63,343.73 804.63,342.59C804.63,341.45 804.99,340.53 805.64,339.85C806.33,339.2 807.17,338.87 808.29,338.87C809.5,338.87 810.42,339.16 811.07,339.82C811.68,340.44 812.01,341.36 812.01,342.5ZM841.21,342.5C841.21,341.42 841.54,340.54 842.19,339.92C842.87,339.27 843.79,338.94 844.93,338.94C846.07,338.94 846.99,339.3 847.64,339.95C848.32,340.64 848.65,341.55 848.65,342.69C848.65,343.77 848.32,344.62 847.64,345.27C846.99,345.89 846.08,346.22 844.93,346.22C843.78,346.22 842.87,345.89 842.19,345.21C841.54,344.56 841.21,343.64 841.21,342.5ZM830.36,342.5C830.36,343.64 830.03,344.56 829.39,345.21C828.71,345.9 827.78,346.22 826.64,346.22C825.49,346.22 824.58,345.89 823.93,345.21C823.25,344.56 822.92,343.67 822.92,342.6C822.92,341.46 823.25,340.54 823.93,339.86C824.58,339.21 825.49,338.88 826.64,338.88C827.79,338.88 828.71,339.17 829.39,339.83C830.03,340.44 830.36,341.36 830.36,342.5Z" style="fill:white;"/>
            </g>
        </g>
        <g transform="matrix(0.967918,0,0,0.883309,480.515,41.1518)">
            <g transform="matrix(1.03315,0,0,1.13211,-37.7257,-93.0046)">
                <path d="M904.81,372.24L904.81,423.39C904.81,430.02 903.73,435.74 901.64,440.54C899.45,445.31 896.67,449.36 893.21,452.69C889.71,455.86 885.66,458.24 881.06,459.75C876.45,461.42 871.68,462.26 866.71,462.26C861.72,462.26 856.91,461.41 852.24,459.75C847.7,458.25 843.68,455.86 840.2,452.69C837.91,450.57 835.26,447.04 832.25,442.04C829.18,447.04 826.53,450.56 824.32,452.69C820.79,455.86 816.77,458.24 812.26,459.75C807.6,461.42 802.76,462.26 797.79,462.26C792.83,462.26 787.99,461.41 783.36,459.75C778.82,458.25 774.8,455.86 771.3,452.69C769.04,450.57 766.4,447.04 763.32,442.04C760.28,447.04 757.64,450.56 755.39,452.69C751.89,455.86 747.88,458.24 743.35,459.75C738.71,461.42 734.69,462.26 731.29,462.26C726.29,462.26 721.49,461.41 716.82,459.75C712.28,458.25 708.26,455.83 704.76,452.6C704.63,452.47 703.2,451.13 700.46,448.58L700.46,456.12C700.39,463.76 698.79,470.49 695.62,476.27C692.48,482.05 688.04,486.59 682.33,489.96C676.61,493.29 670.7,494.99 664.59,494.99L664.59,488.2C672.43,488.2 679.13,485.16 684.68,479.09C690.23,473.05 693,465.37 693,456.13L693,394.89L692.96,393.86C692.71,393.35 692.45,392.87 692.17,392.43C689.53,388.2 685.03,385.26 678.65,383.6L714.83,383.6C708.45,385.4 703.88,388.38 701.11,392.54C700.88,392.88 700.66,393.25 700.46,393.63L700.46,423.31C700.46,428.54 701.34,433.21 703.04,437.29C704.71,441.24 706.93,444.57 709.74,447.25C712.54,449.99 715.81,452.02 719.5,453.36C723.25,454.76 727.21,455.48 731.29,455.48C731.54,455.48 731.78,455.51 732.02,455.56C734.37,455.44 737.27,454.73 740.67,453.46C744.36,452.12 747.62,450.1 750.43,447.35C753.23,444.61 755.46,441.24 757.13,437.29C758.86,433.27 759.71,428.6 759.71,423.31L759.71,372.66C759.41,372.04 759.11,371.47 758.78,370.94C756.14,366.71 751.64,363.77 745.26,362.11L781.44,362.11C775.06,363.91 770.49,366.89 767.72,371.05C767.46,371.43 767.23,371.83 766.99,372.26L766.99,423.31C766.99,428.6 767.81,433.27 769.47,437.29C771.2,441.24 773.46,444.61 776.26,447.35C779.01,450.09 782.27,452.12 786.02,453.46C789.78,454.86 793.7,455.58 797.78,455.58C801.87,455.58 805.79,454.86 809.58,453.46C813.26,452.12 816.5,450.1 819.3,447.35C822.11,444.61 824.37,441.24 826,437.29C827.74,433.27 828.59,428.6 828.59,423.31L828.59,372.34C828.33,371.84 828.08,371.38 827.81,370.94C825.17,366.71 820.67,363.77 814.29,362.11L850.47,362.11C844.09,363.91 839.52,366.89 836.75,371.05C836.44,371.51 836.15,372.02 835.87,372.56L835.87,423.32C835.87,428.61 836.72,433.28 838.35,437.3C840.02,441.25 842.27,444.62 845.14,447.36C847.88,450.1 851.15,452.13 854.9,453.47C858.65,454.87 862.61,455.59 866.69,455.59C870.78,455.59 874.7,454.87 878.45,453.47C882.14,452.13 885.41,450.11 888.21,447.36C891.02,444.62 893.24,441.25 894.91,437.3C896.64,433.28 897.49,428.61 897.49,423.32L897.49,372.67C897.2,372.05 896.89,371.48 896.56,370.95C893.93,366.72 889.42,363.78 883.05,362.12L919.22,362.12C912.85,363.92 908.28,366.9 905.51,371.06C905.28,371.4 905.03,371.81 904.81,372.24Z" style="fill:white;"/>
            </g>
        </g>
        <g transform="matrix(0.967918,0,0,0.883309,480.515,41.1518)">
            <g transform="matrix(1.03315,0,0,1.13211,-37.7257,-93.0046)">
                <path d="M641.04,454.33L641.04,440.19L636.58,445.34C632.72,449.9 627.76,453.57 621.68,456.28C615.66,459.12 608.62,460.54 600.46,460.54C592.27,460.54 585.16,459.15 579.09,456.38C573.07,453.67 568.12,450 564.19,445.44C560.19,440.78 557.22,435.56 555.27,429.75C553.29,423.8 552.3,417.72 552.3,411.45C552.3,404.48 553.39,398 555.57,391.99C557.82,386.01 561.02,380.82 565.15,376.43C569.41,372.04 574.5,368.53 580.45,365.96C586.4,363.38 593.11,362.1 600.57,362.1C608.66,362.1 615.66,363.52 621.68,366.36C627.75,369.07 632.71,372.7 636.58,377.3C640.58,381.96 643.55,387.21 645.5,393.09C647.56,399.07 648.61,405.18 648.61,411.36L648.61,454.34C648.61,462.04 646.99,468.81 643.75,474.66C640.51,480.54 636.02,485.17 630.23,488.57C624.48,491.94 618.47,493.66 612.3,493.66L612.3,486.89C620.22,486.86 627,483.78 632.62,477.64C638.22,471.44 641.04,463.68 641.04,454.33ZM641.04,411.45C641.04,406.16 640.24,401.01 638.63,395.96C637.01,390.81 634.53,386.25 631.17,382.25C627.9,378.22 623.71,375.01 618.58,372.57C613.56,370.03 607.55,368.71 600.57,368.57C593.92,368.57 588.08,369.76 582.96,372.07C577.87,374.45 573.57,377.62 570.1,381.55C566.66,385.48 564.09,390.04 562.34,395.19C560.65,400.34 559.83,405.76 559.83,411.44C559.83,416.73 560.62,421.91 562.24,426.94C563.92,431.96 566.44,436.45 569.81,440.39C573.08,444.39 577.31,447.63 582.49,450.07C587.64,452.45 593.67,453.67 600.57,453.67C607.54,453.67 613.59,452.41 618.67,449.87C623.79,447.43 628,444.19 631.27,440.19C634.57,436.19 637.02,431.73 638.63,426.74C640.24,421.72 641.04,416.6 641.04,411.45Z" style="fill:white;"/>
            </g>
        </g>
        <g transform="matrix(0.967918,0,0,0.883309,480.515,41.1518)">
            <g transform="matrix(1.03315,0,0,1.13211,-37.7257,-93.0046)">
                <path d="M496.51,398.29C498.49,398.93 500.38,399.75 502.21,400.77L515.06,408.16L515.06,431.06L524.28,431.06L524.28,402.84L506.83,392.81C504.02,391.21 501.09,390 498.04,389.16C497.53,389.02 497.02,388.9 496.51,388.78L496.51,398.29Z" style="fill:white;"/>
            </g>
        </g>
        <g transform="matrix(0.967918,0,0,0.883309,480.515,41.1518)">
            <g transform="matrix(1.03315,0,0,1.13211,-37.7257,-93.0046)">
                <path d="M477.75,451.31C474.01,451.31 470.49,450.6 467.22,449.2C463.93,447.78 461.04,445.84 458.56,443.33C456.1,440.89 454.16,438.03 452.76,434.74C451.34,431.45 450.63,427.95 450.63,424.21C450.63,420.47 451.34,416.95 452.76,413.66C454.16,410.4 456.1,407.53 458.56,405.07C461.04,402.59 463.93,400.62 467.22,399.23C470.48,397.81 474.01,397.1 477.75,397.1C479.74,397.1 481.69,397.32 483.64,397.74L483.64,388.44C481.67,388.11 479.69,387.94 477.68,387.94C472.69,387.94 468,388.91 463.6,390.8C459.22,392.69 455.39,395.27 452.1,398.56C448.76,401.87 446.18,405.75 444.29,410.13C442.42,414.53 441.5,419.22 441.5,424.21C441.5,429.2 442.42,433.89 444.29,438.27C446.18,442.67 448.76,446.53 452.1,449.86C454.13,451.89 456.38,453.65 458.82,455.11C453.64,458.64 450.3,463.32 448.76,469.19C447.15,475.39 447.93,481.45 451.13,487.36L451.34,487.62L455.15,485.06L459.1,482.76L458.89,482.5C457.04,478.93 456.62,475.26 457.64,471.47C458.61,467.59 460.88,464.56 464.45,462.38L464.57,462.31C465.64,461.72 466.77,461.25 467.98,460.94C469.19,460.61 470.42,460.44 471.72,460.44L513.17,460.44L513.17,451.28L477.75,451.28L477.75,451.31Z" style="fill:white;"/>
            </g>
        </g>
        <g transform="matrix(0.967918,0,0,0.883309,480.515,41.1518)">
            <g transform="matrix(1.03315,0,0,1.13211,-37.7257,-93.0046)">
                <path d="M831.47,315.76L837.49,314.19C840.22,313.38 842.2,311.86 843.41,309.57C844.31,308.09 844.76,306.43 844.76,304.59C844.76,300.91 843.05,298.08 839.73,296.06C838.16,295.07 836.41,294.58 834.47,294.58C833.66,294.58 832.91,294.71 832.1,294.98C829.31,295.79 827.25,297.36 825.94,299.74C825.04,301.22 824.6,302.84 824.6,304.59C824.6,305.49 824.68,306.39 824.87,307.33C825.49,309.26 826.39,310.88 827.65,312.09C828.88,313.3 830.14,314.55 831.47,315.76ZM819.36,328.02L814.78,326.81C815.55,323.94 816.58,321.87 817.79,320.7C819.01,319.49 820.53,318.68 822.37,318.28L826.09,317.2L824.12,315.23C823.22,314.38 822.46,313.34 821.79,312.22C821.16,311.1 820.62,309.84 820.31,308.54C819.95,307.24 819.77,305.94 819.77,304.72C819.77,301.98 820.44,299.51 821.75,297.22C823.76,293.81 826.77,291.47 830.81,290.26C832.2,289.9 833.6,289.72 834.9,289.72C837.51,289.81 839.93,290.53 842.13,291.83C845.54,293.76 847.92,296.81 849.22,301.03C849.5,302.15 849.63,303.41 849.63,304.71C849.63,307.36 848.96,309.74 847.66,311.94C845.73,315.26 842.81,317.55 838.86,318.76L823.6,322.84C822.61,323.11 821.8,323.56 821.17,324.23C820.48,324.92 819.9,326.13 819.36,328.02Z" style="fill:rgb(77,77,77);"/>
            </g>
        </g>
        <g transform="matrix(0.967918,0,0,0.883309,480.515,41.1518)">
            <g transform="matrix(1.03315,0,0,1.13211,-37.7257,-93.0046)">
                <path d="M600.67,427.15C600.67,417.43 592.72,409.48 583,409.48C592.71,409.48 600.67,401.53 600.67,391.81C600.67,401.53 608.61,409.48 618.34,409.48C608.61,409.48 600.67,417.43 600.67,427.15Z" style="fill:rgb(77,77,77);"/>
            </g>
        </g>
        <g transform="matrix(0.967918,0,0,0.883309,480.515,41.1518)">
            <g transform="matrix(1.03315,0,0,1.13211,-37.7257,-93.0046)">
                <path d="M-151.36,389.78C-168.39,380 -185.02,370.46 -202.22,360.59C-185.14,350.78 -168.42,341.18 -151.36,331.38L-151.36,389.78Z" style="fill:rgb(77,77,77);"/>
            </g>
        </g>
        <g transform="matrix(0.967918,0,0,0.883309,480.515,41.1518)">
            <g transform="matrix(1.03315,0,0,1.13211,-37.7257,-93.0046)">
                <path d="M-254.45,471.25C-271.56,481.07 -288.24,490.65 -305.28,500.43L-305.28,442.07C-288.28,451.84 -271.6,461.41 -254.45,471.25Z" style="fill:rgb(77,77,77);"/>
            </g>
        </g>
    </g>
</svg>
