<svg xmlns="http://www.w3.org/2000/svg" viewBox="0 0 128 128" id="Tiktok--Streamline-Font-Awesome" height="128" width="128"><desc>Tiktok Streamline Icon: https://streamlinehq.com</desc><!--! Font Awesome Free 6.5.2 by @fontawesome - https://fontawesome.com License - https://fontawesome.com/license/free (Icons: CC BY 4.0, Fonts: SIL OFL 1.1, Code: MIT License) Copyright 2024 Fonticons, Inc.--><path d="M118.87742857142857 52.72022857142857c-10.788771428571428 0.0258 -21.312971428571426 -3.3388 -30.085828571428568 -9.618542857142858v43.796857142857135c-0.011285714285714284 30.664428571428573 -33.21351428571428 49.81751428571428 -59.76405714285714 34.475542857142855 -26.550542857142858 -15.341971428571428 -26.536485714285714 -53.672514285714286 0.025314285714285713 -68.99497142857143 7.672285714285715 -4.425828571428571 16.600771428571427 -6.168342857142857 25.37417142857143 -4.9521428571428565v22.028314285714288c-13.428142857142856 -4.2238 -26.393114285714283 7.6727428571428575 -23.336942857142855 21.413742857142854 3.0561714285714285 13.741028571428572 19.841342857142855 19.020742857142853 30.213314285714283 9.503514285714287 3.774514285714286 -3.463428571428571 5.9231428571428575 -8.351285714285714 5.923028571428571 -13.473999999999998V1.28h21.56517142857143c-0.015 1.8211142857142857 0.13759999999999997 3.6397714285714287 0.4558 5.432942857142857 1.5144857142857142 8.090171428571429 6.292571428571429 15.200114285714285 13.211114285714284 19.658599999999996 4.870285714285714 3.2203142857142857 10.58022857142857 4.936714285714285 16.418914285714283 4.935485714285714Z" fill="#000000" stroke-width="0.2857"></path></svg>