<?xml version="1.0" encoding="UTF-8" standalone="no"?>
<!DOCTYPE svg PUBLIC "-//W3C//DTD SVG 1.1//EN" "http://www.w3.org/Graphics/SVG/1.1/DTD/svg11.dtd">
<svg width="100%" height="100%" viewBox="0 0 157 171" version="1.1" xmlns="http://www.w3.org/2000/svg" xmlns:xlink="http://www.w3.org/1999/xlink" xml:space="preserve" xmlns:serif="http://www.serif.com/" style="fill-rule:evenodd;clip-rule:evenodd;stroke-linejoin:round;stroke-miterlimit:2;">
    <g transform="matrix(1,0,0,1,-217.298,-154.987)">
        <g transform="matrix(1,0,0,1,524.723,-176.393)">
            <path d="M-298.85,349.71C-293.17,364.1 -282.2,371.82 -268.96,377.57C-244.07,388.37 -219.43,399.73 -194.7,410.88C-186.94,414.38 -179.68,418.69 -173.22,424.22C-156.62,438.42 -152.3,456.61 -160.68,477.52C-161.91,480.59 -163.44,483.54 -165.06,487.04C-170.71,472.76 -181.56,465.01 -194.69,459.3C-219.92,448.32 -245.03,437.06 -269.94,425.42C-277.29,421.99 -284.32,417.51 -290.59,412.4C-307.49,398.62 -311.6,380.18 -303.22,359.23C-301.99,356.16 -300.46,353.2 -298.85,349.71Z" style="fill:white;"/>
        </g>
        <g transform="matrix(1,0,0,1,524.723,-176.393)">
            <path d="M-270.08,360.61C-270.61,353.12 -277.17,346.99 -284.66,346.99C-277.17,346.99 -271.48,340.87 -272.01,333.37C-271.48,340.86 -264.92,346.99 -257.43,346.99C-264.92,346.99 -270.61,353.11 -270.08,360.61Z" style="fill:white;"/>
        </g>
        <g transform="matrix(1,0,0,1,524.723,-176.393)">
            <path d="M-185.83,499.04C-185.52,491.55 -191.38,485.42 -198.87,485.42C-191.38,485.42 -185,479.3 -184.68,471.8C-184.99,479.29 -179.13,485.42 -171.63,485.42C-179.13,485.42 -185.52,491.55 -185.83,499.04Z" style="fill:white;"/>
        </g>
        <g transform="matrix(1,0,0,1,524.723,-176.393)">
            <path d="M-297.82,347.25C-291.6,361.64 -280.33,369.36 -266.88,375.1C-241.58,385.9 -216.52,397.25 -191.37,408.41C-183.48,411.91 -176.06,416.22 -169.38,421.75C-152.24,435.95 -147.24,454.14 -154.83,475.05C-155.94,478.12 -157.36,481.07 -158.85,484.57C-165.04,470.29 -176.18,462.54 -189.53,456.83C-215.18,445.85 -240.71,434.59 -266.06,422.95C-273.54,419.52 -280.74,415.04 -287.2,409.93C-304.62,396.16 -309.42,377.71 -301.84,356.76C-300.71,353.69 -299.3,350.73 -297.82,347.25Z"/>
        </g>
        <g transform="matrix(1,0,0,1,524.723,-176.393)">
            <path d="M-272.01,360.45C-272.01,352.96 -278.13,346.83 -285.63,346.83C-278.14,346.83 -272.01,340.71 -272.01,333.21C-272.01,340.7 -265.89,346.83 -258.39,346.83C-265.89,346.84 -272.01,352.96 -272.01,360.45Z"/>
        </g>
        <g transform="matrix(1,0,0,1,524.723,-176.393)">
            <path d="M-184.68,498.57C-184.68,491.08 -190.8,484.95 -198.3,484.95C-190.81,484.95 -184.68,478.83 -184.68,471.33C-184.68,478.82 -178.56,484.95 -171.06,484.95C-178.56,484.96 -184.68,491.08 -184.68,498.57Z"/>
        </g>
        <g transform="matrix(1,0,0,1,524.723,-176.393)">
            <path d="M-155.73,392.56C-172.56,382.78 -188.99,373.24 -205.97,363.37C-188.68,353.56 -171.76,343.96 -154.5,334.16C-154.91,353.76 -155.31,372.85 -155.73,392.56Z" style="fill:white;"/>
        </g>
        <g transform="matrix(1,0,0,1,524.723,-176.393)">
            <path d="M-251.63,472.64C-268.2,482.46 -284.36,492.04 -300.86,501.83C-301.93,482.23 -302.98,463.09 -304.05,443.47C-286.51,453.23 -269.32,462.8 -251.63,472.64Z" style="fill:white;"/>
        </g>
        <g transform="matrix(1,0,0,1,524.723,-176.393)">
            <path d="M-151.36,389.78C-168.39,380 -185.02,370.46 -202.22,360.59C-185.14,350.78 -168.42,341.18 -151.36,331.38L-151.36,389.78Z" style="fill:rgb(77,77,77);"/>
        </g>
        <g transform="matrix(1,0,0,1,524.723,-176.393)">
            <path d="M-254.45,471.25C-271.56,481.07 -288.24,490.65 -305.28,500.43L-305.28,442.07C-288.28,451.84 -271.6,461.41 -254.45,471.25Z" style="fill:rgb(77,77,77);"/>
        </g>
    </g>
</svg>
