<?xml version="1.0" encoding="UTF-8" standalone="no"?><!DOCTYPE svg PUBLIC "-//W3C//DTD SVG 1.1//EN" "http://www.w3.org/Graphics/SVG/1.1/DTD/svg11.dtd"><svg width="100%" height="100%" viewBox="0 0 5000 2625" version="1.1" xmlns="http://www.w3.org/2000/svg" xmlns:xlink="http://www.w3.org/1999/xlink" xml:space="preserve" xmlns:serif="http://www.serif.com/" style="fill-rule:evenodd;clip-rule:evenodd;stroke-linejoin:round;stroke-miterlimit:2;"><rect id="Artboard1" x="-0" y="0" width="5000" height="2625" style="fill-opacity:0.9;"/><g><g id="_69b59b7d98" serif:id="69b59b7d98"><g><g><path d="M1158.15,2145.83c-77.654,0 -141.012,-10.516 -190.087,-31.575c-48.978,-20.936 -85.008,-49.611 -108.047,-86.122c-22.929,-36.415 -34.366,-77.97 -34.366,-124.791c-0,-53.858 15.355,-99.607 46.188,-137.258c30.93,-37.473 76.087,-63.358 135.527,-77.531c-37.267,-15.904 -68.953,-42.215 -95.154,-79.042c-26.09,-36.785 -39.095,-81.736 -39.095,-134.894c0,-56.113 12.029,-105.353 36.085,-147.775c24.166,-42.366 59.825,-75.441 106.975,-99.236c47.082,-23.726 105.078,-35.644 173.976,-35.644c35.658,-0 66.684,2.57 93.215,7.725c26.64,5.155 39.947,7.739 39.947,7.739l-26.201,123.499c0,-0 -10.681,-2.681 -32.002,-8.166c-21.376,-5.581 -47.466,-8.371 -78.396,-8.371c-48.278,-0 -86.08,14.282 -113.408,42.738c-27.383,28.51 -41.02,66.533 -41.02,114.054c0,30.82 7.835,59.289 23.616,85.49c15.905,26.091 40.649,46.82 74.328,62.285c33.61,15.465 76.994,23.204 130.151,23.204l83.125,0l0,123.499l-146.056,-0c-57.13,-0 -100.954,6.282 -131.444,18.901c-30.393,12.729 -51.343,29.211 -62.931,49.405c-11.492,20.193 -17.183,41.349 -17.183,63.577c-0,36.346 15.561,66.203 46.82,89.559c31.356,23.314 79.524,35.012 144.544,35.012c30.078,-0 58.533,-1.388 85.49,-4.083c26.902,-2.735 48.869,-5.526 65.942,-8.371c17.018,-2.736 25.554,-4.083 25.554,-4.083l8.166,121.148c-0,-0 -9.554,1.553 -28.565,4.715c-18.902,3.12 -43.81,6.282 -74.74,9.457c-30.833,3.272 -64.444,4.935 -100.954,4.935Z" style="fill:#fff;fill-rule:nonzero;"/></g></g><g><g><path d="M1699.82,2065.07c-29.211,-0 -57.735,-1.444 -85.489,-4.289c-27.658,-2.736 -50.422,-5.32 -68.306,-7.739c-17.774,-2.31 -26.627,-3.437 -26.627,-3.437l9.444,-128.433c-0,-0 9.072,1.553 27.273,4.715c18.31,3.285 41.514,6.667 69.598,10.103c28.029,3.533 57.557,5.361 88.486,5.361c61.708,0 111.374,-12.454 149.067,-37.363c37.638,-24.922 56.498,-65.089 56.498,-120.501l0,-17.829l-92.789,-0c-76.787,-0 -138.55,-11.218 -185.371,-33.721c-46.711,-22.613 -80.541,-54.449 -101.586,-95.579c-20.95,-41.239 -31.37,-89.998 -31.37,-146.276c0,-52.251 11.066,-100.954 33.294,-146.057c22.173,-45.102 56.388,-81.668 102.673,-109.752c46.394,-28.194 105.999,-42.311 178.924,-42.311c46.655,-0 88.761,3.381 126.289,10.09c37.638,6.763 67.33,13.691 89.132,20.839c21.747,7.19 32.648,10.736 32.648,10.736l-0,534.395c-0,54.656 -12.454,104.391 -37.363,149.067c-24.922,44.772 -64.76,80.65 -119.43,107.607c-54.559,26.902 -126.234,40.374 -214.995,40.374Zm219.944,-422.911l0,-305.227c0,0 -10.31,-3.533 -30.929,-10.736c-20.62,-7.134 -48.017,-10.736 -82.053,-10.736c-44.415,0 -79.042,15.039 -103.965,45.102c-24.908,30.078 -37.363,68.527 -37.363,115.347c0,53.859 14.008,95.043 42.092,123.499c28.194,28.51 73.571,42.751 136.173,42.751l76.045,0Z" style="fill:#fff;fill-rule:nonzero;"/></g></g><g><g><path d="M2381.8,1112.36l-14.173,-61.859l91.497,-20.193c-0,-0 -1.169,-4.935 -3.643,-14.819c-2.42,-9.884 -3.657,-19.974 -3.657,-30.284c0,-32.331 11.767,-59.384 35.233,-81.186c23.355,-21.912 51.164,-32.868 83.551,-32.868c33.349,-0 58.312,9.182 74.959,27.493c16.592,18.2 24.923,39.947 24.923,65.296c-0,30.077 -9.774,54.229 -29.212,72.389c-19.341,18.2 -44.841,30.874 -76.471,38.009l-183.007,38.022Zm146.07,-96.225l30.929,-7.093c11.864,-1.554 21.527,-6.282 28.992,-14.173c7.574,-8 11.382,-17.183 11.382,-27.493c-0,-8.591 -2.791,-15.781 -8.372,-21.692c-5.485,-6.021 -13.746,-9.017 -24.922,-9.017c-12.619,-0 -23.3,4.398 -32.002,13.1c-8.756,8.592 -12.674,19.657 -11.808,33.074c-0,8.055 0.907,15.63 2.79,22.764c1.98,7.038 3.011,10.53 3.011,10.53Z" style="fill:#fff;fill-rule:nonzero;"/></g></g><g><path d="M2721.49,1765.66l-117.491,-0l-0,4.729c-0,38.064 -4.028,74.849 -12.029,110.398c-7.89,35.658 -22.558,67.289 -44.03,94.933c-21.375,27.768 -51.013,49.941 -88.926,66.588c-37.967,16.757 -87.414,25.128 -148.42,25.128c-18.201,0 -35.645,-1.237 -52.402,-3.642c-16.647,-2.475 -32.442,-5.265 -47.467,-8.386l13.101,-124.57c13.416,3.862 28.029,7.134 43.81,9.869c15.904,2.846 33.349,4.303 52.415,4.303c39.521,0 70.561,-11.712 93.215,-35.012c22.613,-23.355 33.94,-67.124 33.94,-131.238l0,-571.331l156.793,-0l-0,434.732l107.222,0m0,0l534.372,0c38.765,0 66.258,-10.103 82.479,-30.283c16.331,-20.194 24.483,-59.564 24.483,-118.138l-0,-215.008l156.806,-0l-0,235.202c-0,44.236 6.282,78.286 18.901,102.013c12.716,23.795 36.511,35.658 71.303,35.658c34.793,0 58.107,-12.028 70.025,-36.084c11.863,-24.167 17.829,-57.667 17.829,-100.515l0,-283.741l149.699,0l0,279.013c0,49.129 8.647,83.441 25.995,102.878c17.444,19.342 52.305,29.005 104.597,29.005l41.679,0c2.255,-23.74 4.179,-48.868 5.788,-75.399c1.567,-26.627 2.364,-49.02 2.364,-67.221c0,-59.288 -3.162,-115.827 -9.444,-169.686c-6.337,-53.969 -14.612,-103.525 -24.922,-148.641l153.149,-21.266c11.163,47.577 20.249,99.621 27.273,156.16c7.149,56.595 10.75,114.206 10.75,172.904c0,43.549 -1.622,90.108 -4.729,139.609c-3.175,49.405 -7.519,95.098 -13.1,137.039l-220.81,-0c-51.549,-0 -93.16,-6.709 -124.79,-20.194c-31.686,-13.416 -54.23,-35.974 -67.661,-67.66c-14.337,33.239 -37.321,57.996 -68.938,74.327c-31.686,16.152 -66.107,24.263 -103.319,24.263c-43.549,-0 -80.004,-8.743 -109.326,-26.201c-29.211,-17.458 -48.978,-41.556 -59.288,-72.389c-10.31,28.524 -28.139,50.271 -53.474,65.296c-25.349,15.038 -60.251,22.558 -104.611,22.558l-522.811,-0m1033.59,-817.27c-19.767,-0 -36.84,-7.3 -51.123,-21.912c-14.172,-14.599 -21.266,-32.222 -21.266,-52.842c0,-20.619 7.094,-38.228 21.266,-52.827c14.283,-14.613 31.356,-21.912 51.123,-21.912c20.62,-0 38.009,7.299 52.182,21.912c14.283,14.599 21.486,32.208 21.486,52.827c-0,20.62 -7.203,38.243 -21.486,52.842c-14.173,14.612 -31.562,21.912 -52.182,21.912Zm99.869,168.82c-22.228,0 -41.02,-7.945 -56.485,-23.836c-15.465,-15.905 -23.204,-34.847 -23.204,-56.924c0,-22.173 7.739,-41.13 23.204,-56.924c15.465,-15.891 34.257,-23.837 56.485,-23.837c22.173,0 40.813,7.74 55.852,23.204c15.024,15.355 22.544,34.518 22.544,57.557c-0,22.077 -7.52,41.019 -22.544,56.924c-15.039,15.891 -33.679,23.836 -55.852,23.836Zm-197.18,0c-22.228,0 -40.8,-7.945 -55.838,-23.836c-15.039,-15.905 -22.558,-34.847 -22.558,-56.924c-0,-22.173 7.519,-41.13 22.558,-56.924c15.038,-15.891 33.61,-23.837 55.838,-23.837c22.187,0 40.813,7.74 55.852,23.204c15.039,15.355 22.558,34.518 22.558,57.557c-0,22.077 -7.519,41.019 -22.558,56.924c-15.039,15.891 -33.665,23.836 -55.852,23.836Z" style="fill:#fff;"/></g><g><g><path d="M3592.16,720.376l-14.173,-61.859l91.497,-20.194c0,0 -1.168,-4.935 -3.643,-14.818c-2.419,-9.884 -3.656,-19.974 -3.656,-30.284c-0,-32.331 11.767,-59.385 35.232,-81.186c23.355,-21.912 51.164,-32.868 83.551,-32.868c33.349,-0 58.313,9.182 74.96,27.493c16.592,18.2 24.922,39.947 24.922,65.295c-0,30.078 -9.774,54.23 -29.211,72.389c-19.342,18.201 -44.841,30.875 -76.472,38.009l-183.007,38.023Zm146.07,-96.225l30.93,-7.093c11.863,-1.554 21.527,-6.282 28.991,-14.173c7.574,-8 11.382,-17.183 11.382,-27.493c0,-8.591 -2.79,-15.781 -8.371,-21.692c-5.485,-6.021 -13.747,-9.018 -24.923,-9.018c-12.619,0 -23.3,4.399 -32.002,13.101c-8.756,8.591 -12.674,19.657 -11.808,33.074c0,8.055 0.907,15.63 2.791,22.764c1.979,7.038 3.01,10.53 3.01,10.53Z" style="fill:#fff;fill-rule:nonzero;"/></g></g></g></g></svg>